<?xml version="1.0" standalone="no"?>
<!DOCTYPE svg PUBLIC "-//W3C//DTD SVG 20010904//EN"
 "http://www.w3.org/TR/2001/REC-SVG-20010904/DTD/svg10.dtd">
<svg version="1.0" xmlns="http://www.w3.org/2000/svg"
 width="308.000000pt" height="186.000000pt" viewBox="0 0 308.000000 186.000000"
 preserveAspectRatio="xMidYMid meet">

<g transform="translate(0.000000,186.000000) scale(0.100000,-0.100000)"
fill="#000000" stroke="none">
<path d="M2627 1678 l-45 -53 -39 22 c-194 109 -462 88 -616 -47 -122 -107
-175 -299 -124 -447 l19 -53 231 1 232 0 -122 43 c-68 24 -139 56 -158 70 -71
54 -100 159 -72 257 31 104 109 168 238 195 223 47 417 -82 470 -311 6 -27 13
-56 15 -62 2 -7 10 -13 19 -13 13 0 15 29 15 219 0 121 -4 222 -9 225 -5 4
-29 -18 -54 -46z"/>
<path d="M692 1695 c-95 -23 -214 -89 -296 -166 -41 -38 -91 -92 -111 -118
-44 -61 -108 -190 -129 -258 l-15 -53 129 0 c148 0 134 -11 144 111 19 216
113 374 255 431 82 32 260 32 345 -2 145 -56 222 -204 251 -482 l6 -58 130 0
c71 0 129 1 129 3 0 13 -52 151 -70 187 -103 203 -290 360 -482 405 -76 18
-213 18 -286 0z"/>
<path d="M175 955 c-30 -29 -32 -58 -5 -85 39 -39 120 -12 120 40 0 27 -43 70
-70 70 -11 0 -32 -11 -45 -25z m73 -17 c18 -18 14 -46 -7 -58 -25 -13 -48 -4
-56 21 -12 38 35 65 63 37z"/>
<path d="M377 973 c-4 -3 -7 -33 -7 -65 0 -45 3 -58 15 -58 11 0 15 11 15 38
l0 37 21 -35 c23 -36 21 -37 56 17 10 16 12 13 12 -19 1 -21 6 -38 11 -38 6 0
10 28 10 65 0 36 -4 65 -9 65 -5 0 -20 -18 -33 -41 l-24 -41 -27 41 c-29 44
-30 45 -40 34z"/>
<path d="M610 916 c0 -52 3 -66 15 -66 8 0 15 8 15 18 0 31 11 33 32 7 19 -24
48 -34 48 -17 0 5 -9 17 -20 27 -25 23 -25 30 1 66 27 38 3 40 -32 3 l-24 -26
-5 23 c-3 12 -11 24 -18 27 -9 3 -12 -15 -12 -62z"/>
<path d="M800 935 c0 -64 13 -85 53 -85 46 0 57 16 57 78 0 69 -23 67 -30 -4
-4 -41 -8 -49 -25 -49 -17 0 -21 8 -25 49 -7 66 -30 74 -30 11z"/>
<path d="M1008 973 c-9 -22 -2 -117 10 -120 8 -3 12 7 12 34 l0 38 19 -28 c10
-16 22 -29 26 -29 4 0 16 13 26 29 l19 28 0 -37 c0 -28 4 -38 15 -38 13 0 15
11 13 62 -2 34 -8 63 -14 65 -5 2 -21 -15 -34 -38 l-23 -42 -25 41 c-23 40
-37 51 -44 35z"/>
<path d="M1251 918 c-16 -37 -24 -65 -18 -67 6 -2 16 4 22 13 16 21 61 21 73
0 5 -9 14 -15 21 -13 14 5 -43 129 -59 129 -6 0 -24 -28 -39 -62z m52 2 c4
-15 0 -20 -14 -20 -17 0 -18 3 -9 20 6 11 12 20 14 20 2 0 6 -9 9 -20z"/>
<path d="M1440 915 c0 -51 3 -65 15 -65 8 0 15 9 15 20 0 11 4 20 10 20 5 0
15 -9 22 -20 7 -11 18 -20 25 -20 15 0 17 16 3 25 -6 4 -4 15 6 30 21 32 5 60
-37 69 -59 11 -59 11 -59 -59z m75 15 c0 -8 -10 -16 -22 -18 -18 -3 -23 2 -23
18 0 16 5 21 23 18 12 -2 22 -10 22 -18z"/>
<path d="M1758 969 c-30 -17 -22 -48 17 -65 42 -17 37 -39 -7 -30 -21 4 -28 2
-26 -7 3 -6 20 -13 40 -15 64 -5 78 49 18 69 -39 14 -39 29 0 29 32 0 40 14
14 24 -22 8 -36 7 -56 -5z"/>
<path d="M1935 955 c-30 -29 -32 -58 -5 -85 39 -39 120 -12 120 40 0 27 -43
70 -70 70 -11 0 -32 -11 -45 -25z m73 -17 c18 -18 14 -46 -7 -58 -25 -13 -48
-4 -56 21 -12 38 35 65 63 37z"/>
<path d="M2137 973 c-4 -3 -7 -33 -7 -65 l0 -58 45 0 c25 0 45 5 45 10 0 6
-13 10 -30 10 -30 0 -30 1 -30 55 0 51 -7 65 -23 48z"/>
<path d="M2320 918 c-19 -41 -26 -64 -19 -67 7 -2 16 4 21 13 11 20 64 21 72
1 3 -8 12 -15 20 -15 12 0 9 13 -13 62 -15 34 -33 64 -39 66 -7 2 -25 -24 -42
-60z m50 2 c9 -17 8 -20 -9 -20 -14 0 -18 5 -14 20 3 11 7 20 9 20 2 0 8 -9
14 -20z"/>
<path d="M2507 974 c-4 -4 -7 -34 -7 -66 0 -45 3 -58 15 -58 11 0 15 11 15 38
l1 37 32 -38 c47 -54 59 -49 55 25 -2 38 -8 63 -15 66 -9 2 -13 -8 -13 -34 l0
-38 -38 37 c-21 21 -41 34 -45 31z"/>
<path d="M2710 916 c0 -52 3 -66 15 -66 8 0 15 9 15 19 0 31 18 34 36 6 9 -14
25 -25 36 -25 18 0 18 2 -6 31 -31 37 -32 41 -6 64 11 10 20 22 20 27 0 17
-22 7 -50 -23 l-28 -32 -4 28 c-2 16 -9 30 -15 33 -10 3 -13 -14 -13 -62z"/>
<path d="M2909 978 c-1 -2 -3 -31 -4 -65 -2 -48 0 -63 11 -63 11 0 14 16 14
65 0 37 -4 65 -10 65 -5 0 -11 -1 -11 -2z"/>
<path d="M152 663 c17 -64 85 -201 132 -268 99 -138 258 -252 406 -290 96 -25
262 -17 351 18 148 56 302 190 388 334 33 55 101 216 101 238 0 3 -58 5 -129
5 l-130 0 -6 -47 c-29 -225 -62 -318 -144 -407 -81 -86 -174 -121 -311 -114
-73 3 -98 9 -152 36 -142 70 -225 222 -246 449 l-7 78 -132 3 -132 3 11 -38z"/>
<path d="M2610 662 c68 -130 35 -299 -78 -403 -135 -125 -350 -132 -522 -18
-96 65 -160 154 -205 289 -13 38 -28 65 -36 65 -11 0 -15 -42 -17 -224 -1
-137 1 -228 7 -234 14 -14 35 6 82 75 l39 58 48 -34 c110 -78 218 -116 332
-116 145 0 255 45 355 145 100 99 155 231 155 373 l0 62 -90 0 -90 0 20 -38z"/>
</g>
</svg>
